<svg xmlns="http://www.w3.org/2000/svg" width="755.786" height="613.838" viewBox="0 0 755.786 613.838">
  <path id="Icon_awesome-twitter" data-name="Icon awesome-twitter" d="M678.1,156.36c.48,6.714.48,13.429.48,20.142,0,204.771-155.856,440.716-440.716,440.716A437.728,437.728,0,0,1,0,547.683,320.435,320.435,0,0,0,37.406,549.6a310.215,310.215,0,0,0,192.3-66.179A155.172,155.172,0,0,1,84.882,376a195.336,195.336,0,0,0,29.254,2.4,163.827,163.827,0,0,0,40.762-5.274A154.919,154.919,0,0,1,30.691,221.1v-1.918a156,156,0,0,0,70.015,19.661A155.129,155.129,0,0,1,52.75,31.674,440.292,440.292,0,0,0,372.137,193.766a174.86,174.86,0,0,1-3.837-35.487A155.046,155.046,0,0,1,636.375,52.3a304.966,304.966,0,0,0,98.31-37.406,154.48,154.48,0,0,1-68.1,85.361c31.172-3.355,61.384-11.989,89.2-23.977A332.971,332.971,0,0,1,678.1,156.36Z" transform="translate(0 -3.381)" fill="#fff"/>
</svg>
