<svg xmlns="http://www.w3.org/2000/svg" xmlns:xlink="http://www.w3.org/1999/xlink" width="190" height="190" viewBox="0 0 190 190">
  <defs>
    <linearGradient id="linear-gradient" x1="0.789" y1="0.922" x2="0.489" y2="0.364" gradientUnits="objectBoundingBox">
      <stop offset="0" stop-color="#1f5c00"/>
      <stop offset="0.986" stop-color="#70a91c"/>
    </linearGradient>
    <linearGradient id="linear-gradient-2" x1="0.496" y1="1.005" x2="0.544" y2="0.234" gradientUnits="objectBoundingBox">
      <stop offset="0" stop-color="#49a91c"/>
      <stop offset="0.986" stop-color="#70a91c"/>
    </linearGradient>
  </defs>
  <g id="Groupe_9" data-name="Groupe 9" transform="translate(-5346 353)">
    <g id="Groupe_6" data-name="Groupe 6" transform="translate(4898.02 -702.22)">
      <path id="Tracé_15" data-name="Tracé 15" d="M637.98,444.22a94.993,94.993,0,1,1-112.26-93.43c.07-.01.15-.03.22-.04a95.111,95.111,0,0,1,100.01,47.17A94.525,94.525,0,0,1,637.98,444.22Z" fill="#f9efa0"/>
      <g id="Groupe_6-2" data-name="Groupe 6">
        <path id="Tracé_4" data-name="Tracé 4" d="M618.956,470.318c0,28.878-33.51,56.14-75.381,56.14s-76.246-27.262-76.246-56.14" fill="#714406"/>
        <path id="Tracé_4-2" data-name="Tracé 4-2" d="M543.142,456.193c41.871,0,75.813,6.282,75.813,14.03s-33.942,14.03-75.813,14.03-75.813-6.281-75.813-14.03S501.272,456.193,543.142,456.193Z" fill="#845217"/>
      </g>
      <path id="Tracé_15-2" data-name="Tracé 15" d="M539.674,471.406c.845.286,17.979-5.731,17.979-5.731V396.029H539.674Z" fill="#816100"/>
      <path id="Tracé_16" data-name="Tracé 16" d="M540.86,471.411l-14.431-4.723V402.4H540.86Z" fill="#684f00"/>
      <path id="Tracé_16-2" data-name="Tracé 16" d="M525.94,350.75l-10.01,52.96-51.95-12.25a95,95,0,0,1,61.74-40.67C525.79,350.78,525.87,350.76,525.94,350.75Z" fill="url(#linear-gradient)"/>
      <path id="Tracé_17" data-name="Tracé 17" d="M625.95,397.92l-110.02,5.79,9.79-52.92c.07-.01.15-.03.22-.04a95.111,95.111,0,0,1,100.01,47.17Z" fill="url(#linear-gradient-2)"/>
      <path id="Tracé_18" data-name="Tracé 18" d="M542.371,467.777l13.79-4.438" transform="translate(0 -31)" fill="none" stroke="#fff" stroke-width="0.5"/>
      <path id="Tracé_22" data-name="Tracé 22" d="M542.371,467.777l13.79-4.438" transform="translate(0 -33)" fill="none" stroke="#fff" stroke-width="0.5"/>
      <path id="Tracé_19" data-name="Tracé 19" d="M542.371,467.777l13.79-4.438" transform="translate(0 -29)" fill="none" stroke="#fff" stroke-width="0.5"/>
      <path id="Tracé_20" data-name="Tracé 20" d="M542.371,467.777l13.79-4.438" transform="translate(0 -27)" fill="none" stroke="#fff" stroke-width="0.5"/>
      <path id="Tracé_21" data-name="Tracé 21" d="M542.371,467.777l13.79-4.438" transform="translate(0 -25)" fill="none" stroke="#fff" stroke-width="0.5"/>
    </g>
  </g>
</svg>
