<svg xmlns="http://www.w3.org/2000/svg" width="190" height="190" viewBox="0 0 190 190">
  <g id="Groupe_7" data-name="Groupe 7" transform="translate(-4651 357)">
    <circle id="Ellipse_1" data-name="Ellipse 1" cx="95" cy="95" r="95" transform="translate(4651 -357)" fill="#f9efa0"/>
    <g id="Groupe_2" data-name="Groupe 2" transform="translate(1.347 3.032)">
      <path id="Tracé_4" data-name="Tracé 4" d="M1056.584,550.872c0,28.878-33.51,56.14-75.381,56.14s-76.246-27.262-76.246-56.14" transform="translate(3764.043 -789.808)" fill="#714406"/>
      <path id="Tracé_4-2" data-name="Tracé 4" d="M980.77,468.872c41.871,0,75.813,6.282,75.813,14.03s-33.942,14.03-75.813,14.03-75.813-6.281-75.813-14.03S938.9,468.872,980.77,468.872Z" transform="translate(3764.043 -721.933)" fill="#845217"/>
    </g>
    <g id="Groupe_3" data-name="Groupe 3" transform="translate(3817.447 -842.924)">
      <path id="Tracé_4-3" data-name="Tracé 4" d="M926.862,607.84h4.149s-1.087-4.893-.978-14.363a3.432,3.432,0,0,1,.329-1.429,8.64,8.64,0,0,1,1.42-2.181,2.073,2.073,0,0,1,2.459-.409,18.427,18.427,0,0,0,16.6-.068,14.247,14.247,0,0,0,2.689-1.713,26.162,26.162,0,0,0,9.07-14.922,10.456,10.456,0,0,1-7.362,3.4c-2.937.027-8.2.019-11.556.01a14.333,14.333,0,0,0-9.007,3.01,8.9,8.9,0,0,0-3.692,6.724s-.6,3.915-1.319,5.107h-.639s-1.655-1.912-2.533-3.234a3.222,3.222,0,0,1-.531-1.785v-4.471s.128-7.489-9.7-12.425c0,0-4.468-3.7-25.7-3.107,0,0,5.176,5.859,8.364,9.794a28.32,28.32,0,0,0,7.677,6.667,40.155,40.155,0,0,0,17.266,5.461,2.849,2.849,0,0,1,2.274,1.474l1.164,2.1a5.034,5.034,0,0,1,.609,1.943C928.178,596.13,928.677,603.358,926.862,607.84Z" fill="#8cc914"/>
      <path id="Tracé_5" data-name="Tracé 5" d="M910.994,573.584a10.867,10.867,0,0,0-1.558.6l1.208.341c10.349,3.859,12.992,11.815,13.018,11.9l.953-.3C924.506,585.771,921.821,577.624,910.994,573.584Z" fill="#7db412"/>
      <path id="Tracé_6" data-name="Tracé 6" d="M942.382,582.576c-6.892-.441-11.038,5.455-11.21,5.706l.825.564c.04-.056,3.943-5.667,10.323-5.272a1.984,1.984,0,0,0,1.393-1A3.458,3.458,0,0,1,942.382,582.576Z" fill="#7db412"/>
    </g>
  </g>
</svg>
