<svg xmlns="http://www.w3.org/2000/svg" width="613.975" height="613.838" viewBox="0 0 613.975 613.838">
  <path id="Icon_awesome-instagram" data-name="Icon awesome-instagram" d="M307.051,151.776a157.38,157.38,0,1,0,157.38,157.38A157.131,157.131,0,0,0,307.051,151.776Zm0,259.7A102.318,102.318,0,1,1,409.368,309.157,102.5,102.5,0,0,1,307.051,411.474ZM507.577,145.339a36.708,36.708,0,1,1-36.708-36.708A36.623,36.623,0,0,1,507.577,145.339Zm104.235,37.256c-2.328-49.173-13.56-92.73-49.584-128.616C526.342,18.092,482.785,6.86,433.612,4.395c-50.679-2.876-202.581-2.876-253.26,0C131.316,6.724,87.759,17.955,51.736,53.842S4.618,133.285,2.152,182.458c-2.876,50.679-2.876,202.581,0,253.26,2.329,49.173,13.56,92.73,49.584,128.616s79.443,47.118,128.616,49.584c50.679,2.876,202.581,2.876,253.26,0,49.173-2.328,92.73-13.56,128.616-49.584,35.887-35.887,47.118-79.443,49.584-128.616,2.876-50.679,2.876-202.444,0-253.123ZM546.34,490.1a103.588,103.588,0,0,1-58.35,58.35c-40.407,16.026-136.287,12.327-180.939,12.327s-140.67,3.561-180.939-12.327a103.588,103.588,0,0,1-58.35-58.35C51.736,449.689,55.434,353.809,55.434,309.157s-3.561-140.67,12.327-180.939a103.588,103.588,0,0,1,58.35-58.35C166.518,53.842,262.4,57.54,307.051,57.54S447.72,53.979,487.99,69.867a103.588,103.588,0,0,1,58.35,58.35c16.026,40.407,12.327,136.287,12.327,180.939S562.366,449.826,546.34,490.1Z" transform="translate(0.005 -2.238)" fill="#fff"/>
</svg>
