<svg xmlns="http://www.w3.org/2000/svg" width="455.141" height="455.141" viewBox="0 0 455.141 455.141">
  <path id="Icon_awesome-pinterest" data-name="Icon awesome-pinterest" d="M455.141,228.133c0,125.714-101.856,227.57-227.57,227.57a226.659,226.659,0,0,1-67.353-10.186c9.268-15.141,23.124-39.917,28.263-59.645,2.753-10.644,14.131-54.14,14.131-54.14,7.433,14.131,29.089,26.152,52.121,26.152,68.638,0,118.1-63.132,118.1-141.589,0-75.153-61.389-131.4-140.3-131.4-98.186,0-150.4,65.885-150.4,137.735,0,33.4,17.8,74.97,46.156,88.183,4.313,2.019,6.607,1.1,7.616-3.028.734-3.12,4.588-18.628,6.332-25.785a6.813,6.813,0,0,0-1.56-6.515c-9.268-11.47-16.792-32.392-16.792-51.937,0-50.194,37.99-98.736,102.774-98.736,55.883,0,95.066,38.081,95.066,92.588,0,61.572-31.107,104.242-71.575,104.242-22.3,0-39.091-18.444-33.677-41.109,6.423-27.07,18.811-56.25,18.811-75.8,0-17.435-9.36-32.025-28.813-32.025-22.849,0-41.2,23.583-41.2,55.241,0,20.188,6.79,33.769,6.79,33.769s-22.482,95.249-26.611,113.051c-4.588,19.637-2.753,47.349-.826,65.335C60.012,406.977,0,324.575,0,228.133,0,102.419,101.856.563,227.57.563S455.141,102.419,455.141,228.133Z" transform="translate(0 -0.563)" fill="#fff"/>
</svg>
