<svg xmlns="http://www.w3.org/2000/svg" width="57.176" height="57.176" viewBox="0 0 57.176 57.176">
  <path id="Icon_awesome-twitter-square" data-name="Icon awesome-twitter-square" d="M51.05,2.25H6.126A6.128,6.128,0,0,0,0,8.376V53.3a6.128,6.128,0,0,0,6.126,6.126H51.05A6.128,6.128,0,0,0,57.176,53.3V8.376A6.128,6.128,0,0,0,51.05,2.25ZM44.809,22.517c.026.357.026.727.026,1.085,0,11.065-8.423,23.815-23.815,23.815A23.7,23.7,0,0,1,8.168,43.664a17.634,17.634,0,0,0,2.016.1,16.782,16.782,0,0,0,10.389-3.573,8.381,8.381,0,0,1-7.823-5.807,9.021,9.021,0,0,0,3.778-.153,8.371,8.371,0,0,1-6.7-8.219v-.1A8.365,8.365,0,0,0,13.6,26.971,8.353,8.353,0,0,1,9.878,20a8.266,8.266,0,0,1,1.136-4.224,23.767,23.767,0,0,0,17.255,8.755A8.388,8.388,0,0,1,42.55,16.889a16.4,16.4,0,0,0,5.309-2.016,8.349,8.349,0,0,1-3.676,4.607,16.657,16.657,0,0,0,4.824-1.3A17.618,17.618,0,0,1,44.809,22.517Z" transform="translate(0 -2.25)" fill="#fff"/>
</svg>
